<svg xmlns="http://www.w3.org/2000/svg" viewBox="0 0 64 64" width="64" height="64">
  <defs>
    <linearGradient id="mochiGrad" x1="0%" y1="0%" x2="100%" y2="100%">
      <stop offset="0%" stop-color="#FFB6C1" />
      <stop offset="60%" stop-color="#FF85A2" />
      <stop offset="100%" stop-color="#FF6584" />
    </linearGradient>
    <radialGradient id="powderGrad" cx="35%" cy="30%" r="60%">
      <stop offset="0%" stop-color="#FFFFFF" stop-opacity="0.8" />
      <stop offset="60%" stop-color="#FFF0F5" stop-opacity="0.2" />
      <stop offset="100%" stop-color="#FF85A2" stop-opacity="0" />
    </radialGradient>
    <filter id="shadow" x="-10%" y="-10%" width="120%" height="130%">
      <feDropShadow dx="0" dy="3" stdDeviation="2" flood-color="#8B4513" flood-opacity="0.25" />
    </filter>
  </defs>
  <path d="M12 36 C12 20, 22 12, 32 12 C42 12, 52 20, 52 36 C52 48, 44 54, 32 54 C20 54, 12 48, 12 36 Z" fill="url(#mochiGrad)" filter="url(#shadow)" />
  <ellipse cx="28" cy="24" rx="15" ry="9" fill="url(#powderGrad)" transform="rotate(-10 28 24)" />
  <g transform="translate(32, 12)">
    <path d="M-6 -4 C-8 -8, -3 -9, 0 -6 C3 -9, 8 -8, 6 -4 C4 -2, -4 -2, -6 -4 Z" fill="#4ADE80" />
    <path d="M0 -6 C1 -10, -1 -10, 0 -6 Z" fill="#22C55E" />
    <path d="M-5 -2 C-6 3, 0 8, 0 8 C0 8, 6 3, 5 -2 C3 -5, -3 -5, -5 -2 Z" fill="#EF4444" />
    <circle cx="-1.5" cy="0" r="0.5" fill="#FEF08A" />
    <circle cx="1.5" cy="0" r="0.5" fill="#FEF08A" />
    <circle cx="0" cy="3" r="0.5" fill="#FEF08A" />
  </g>
  <path d="M22 34 Q25 31 28 34" stroke="#4A2511" stroke-width="2.2" stroke-linecap="round" fill="none" />
  <path d="M36 34 Q39 31 42 34" stroke="#4A2511" stroke-width="2.2" stroke-linecap="round" fill="none" />
  <ellipse cx="20" cy="39" rx="3.5" ry="2" fill="#FF477E" opacity="0.65" />
  <ellipse cx="44" cy="39" rx="3.5" ry="2" fill="#FF477E" opacity="0.65" />
  <path d="M30 38 Q32 41 34 38" stroke="#4A2511" stroke-width="2" stroke-linecap="round" fill="none" />
  <path d="M48 20 L49 23 L52 24 L49 25 L48 28 L47 25 L44 24 L47 23 Z" fill="#FBBF24" />
  <circle cx="15" cy="24" r="1.5" fill="#FFFFFF" opacity="0.9" />
</svg>
